<svg preserveAspectRatio="none" width="100%" height="100%" overflow="visible" style="display: block;" viewBox="0 0 4.53589 2.49022" fill="none" xmlns="http://www.w3.org/2000/svg">
<g id="Group">
<path id="Vector" d="M3.03269 0.343921C3.2787 0.0026248 3.74824 -0.103532 4.12041 0.111272C4.49266 0.326159 4.63584 0.786145 4.46328 1.16985L4.42444 1.24522C4.2059 1.62361 3.89166 1.93777 3.51335 2.15631C3.13495 2.37476 2.70526 2.49013 2.26835 2.49022C1.83135 2.49022 1.40183 2.37476 1.02335 2.15631C0.692092 1.96508 0.409975 1.70056 0.198209 1.38383L0.111482 1.24522L0.072572 1.16985C-0.0999352 0.786145 0.0432645 0.326159 0.415436 0.111272C0.787625 -0.103532 1.25716 0.0026248 1.50317 0.343921L1.5494 0.415217L1.60941 0.506019C1.67548 0.59209 1.75873 0.664549 1.85335 0.719163C1.97942 0.791871 2.12276 0.830217 2.26835 0.830217C2.41393 0.830134 2.55727 0.791954 2.68335 0.719163C2.80942 0.646372 2.91367 0.541294 2.98646 0.415217L3.03269 0.343921Z" fill="var(--fill-0, #575E6B)"/>
</g>
</svg>
